<?xml version="1.0" encoding="UTF-8"?>
<svg id="Layer_1" xmlns="http://www.w3.org/2000/svg" viewBox="0 0 190.66 86.1">
  <defs>
    <style>
      .cls-1 {
        fill: #754c24;
      }
    </style>
  </defs>
  <path class="cls-1" d="M160.14,29.92c8.03-6.29,15.03-5.63,20.27-12.27,2.37-3,3.45-6.32,3.94-9.14,5.77,6.95,2.69,19.85-7.18,29.31-9.25,8.88-21.27,11.67-28.25,6.99,3.65-7.95,7.99-12.35,11.23-14.89Z"/>
  <path class="cls-1" d="M153.62,13.29c9-8.64,20.64-11.52,27.69-7.35-.46,2.88-1.53,6.31-3.98,9.42-5.24,6.64-12.23,5.99-20.27,12.27-3.18,2.49-7.42,6.78-11.03,14.45-5.21-7.05-2.04-19.56,7.58-28.79Z"/>
  <path class="cls-1" d="M107.73,3.75c3.65-3.51,8.37-4.67,11.24-2.98-.19,1.17-.62,2.56-1.62,3.82-2.13,2.69-4.96,2.43-8.22,4.98-1.29,1.01-3.01,2.75-4.47,5.86-2.11-2.86-.83-7.93,3.08-11.68Z"/>
  <path class="cls-1" d="M18.69,22.55c3.1,1.08,5.23,2.42,6.4,4.02s1.75,3.8,1.75,6.61c0,4.28-1.08,7.47-3.22,9.57-2.15,2.1-5.48,3.15-9.98,3.15H1.22c-.51,0-.76-.26-.76-.79v-1.52c0-.42.23-.74.69-.94.96-.46,1.45-1.13,1.45-2.01V10.01c0-.42-.07-.71-.2-.86-.14-.15-.54-.39-1.22-.71-.34-.15-.54-.32-.6-.51-.06-.19-.09-.64-.09-1.37,0-.64.09-1.07.27-1.29.18-.22.49-.33.93-.33h13.91c3.35,0,5.92.85,7.72,2.56,1.79,1.71,2.69,3.88,2.69,6.53,0,2.2-.71,4.05-2.12,5.54-1.41,1.49-3.14,2.49-5.19,3ZM12.04,7.8v13.33h1.35c.85,0,1.51-.25,1.99-.74.48-.49.76-1.31.84-2.45s.11-2.59.11-4.33c0-2.44-.23-4.02-.7-4.74-.47-.72-1.21-1.08-2.25-1.08h-1.35ZM12.04,24.03v18.97c1.56,0,2.6-.21,3.14-.63s.85-1.26.94-2.51c.09-1.25.14-3.37.14-6.35,0-.61-.03-1.99-.08-4.15s-.15-3.46-.3-3.9c-.15-.44-.42-.79-.8-1.04s-.94-.38-1.69-.38h-1.35Z"/>
  <path class="cls-1" d="M38.77,28.06v10.38c0,1.37.27,2.45.8,3.22s1.21,1.17,2.04,1.17c1.29,0,2.31-.55,3.08-1.64.77-1.09,1.18-2.59,1.23-4.48.02-1.02.11-1.62.29-1.83s.79-.3,1.84-.3c.91,0,1.49.09,1.74.28.25.19.37.65.37,1.4,0,2.61-.85,4.93-2.54,6.96-1.69,2.03-3.94,3.05-6.73,3.05-3.2,0-5.92-1.45-8.15-4.35s-3.35-7.27-3.35-13.11,1.03-10.29,3.1-13.34c2.06-3.06,4.77-4.58,8.12-4.58,2.88,0,5.19,1.29,6.93,3.86,1.74,2.57,2.62,6.23,2.62,10.97v2.36h-11.4ZM42.2,24.89v-8.4c0-1.59-.57-2.39-1.7-2.39s-1.73.8-1.73,2.39v8.4h3.43Z"/>
  <path class="cls-1" d="M65.66,21.31v-4.9c0-1.35-.55-2.03-1.65-2.03-1.51,0-2.26,1.02-2.26,3.07,0,1.15-.13,1.97-.39,2.46-.26.49-.85.91-1.78,1.26-.92.35-1.91.52-2.96.52-2.15,0-3.22-1.15-3.22-3.45,0-2.17.94-3.94,2.81-5.31,1.87-1.37,4.31-2.06,7.33-2.06,1.98,0,3.76.27,5.34.81,1.58.54,2.85,1.45,3.79,2.74.95,1.29,1.42,2.7,1.42,4.24v23.16c.03.12.29.37.76.76.34.25.51.63.51,1.12,0,.68-.09,1.16-.28,1.43-.19.28-.64.54-1.36.77-.72.24-1.62.36-2.7.36-1.32,0-2.42-.24-3.3-.72-.88-.48-1.57-1.43-2.06-2.83-1.47,1.52-2.67,2.5-3.58,2.92s-1.85.63-2.82.63c-2.15,0-3.81-.84-4.99-2.52s-1.77-4.43-1.77-8.26c0-3.82.55-6.47,1.65-7.95,1.1-1.48,3.25-2.84,6.45-4.1,2.03-.78,3.72-1.49,5.05-2.13ZM65.66,24.61c-1.91.85-3.06,1.8-3.43,2.85-.37,1.06-.56,3.44-.56,7.14,0,2.72.15,4.44.46,5.16s.83,1.08,1.57,1.08c1.3,0,1.96-1.08,1.96-3.25v-12.98Z"/>
  <path class="cls-1" d="M87.22,14.68c2.01-2.54,4.32-3.81,6.91-3.81,1.77,0,3.12.57,4.06,1.71.94,1.14,1.4,2.58,1.4,4.3v24.32c0,.54.21.96.63,1.24.39.24.58.85.58,1.83,0,.78-.06,1.24-.19,1.4s-.39.23-.8.23h-7.13c-1.02-.86-1.52-1.99-1.52-3.38v-24.15c0-1.32-.54-1.98-1.62-1.98-.71,0-1.48.37-2.31,1.12v23.69c0,.61.3,1.08.89,1.42.36.2.53.58.53,1.12v1.29c0,.58-.42.86-1.24.86h-9.01c-.44,0-.72-.06-.84-.19-.12-.13-.18-.44-.18-.95v-.94c0-.49.15-.84.46-1.04.41-.29.67-.56.79-.81.12-.25.18-.81.18-1.68V15.47c0-.59-.29-1.02-.86-1.29-.32-.15-.48-.42-.48-.81v-1.35c0-.52.24-.79.71-.79h8.28c.36,0,.58.05.66.15.08.1.13.31.13.63v2.67Z"/>
  <path class="cls-1" d="M123.25,11.81l1.4,7.03c.03.22.05.42.05.58,0,.47-.46.71-1.37.71-.61,0-1.05-.08-1.33-.23s-.6-.56-.95-1.22c-.41-.78-1.02-1.7-1.85-2.77-.83-1.07-1.57-1.6-2.23-1.6-.25,0-.48.12-.67.36-.19.24-.29.52-.29.84,0,.86,1.24,3.31,3.71,7.33,2.13,3.5,3.58,6.25,4.34,8.25.76,2,1.14,4.25,1.14,6.75,0,2.66-.58,4.72-1.73,6.2-1.15,1.48-2.51,2.22-4.06,2.22-.98,0-2.01-.36-3.1-1.07-.59-.39-.99-.58-1.19-.58-.24,0-.37.19-.41.58-.07.46-.17.75-.3.88-.14.13-.58.19-1.32.19-.58,0-.95-.08-1.12-.25-.17-.17-.29-.47-.36-.89l-1.27-7.08c-.05-.34-.08-.55-.08-.63,0-.47.57-.71,1.7-.71.59,0,1,.08,1.23.23s.52.59.88,1.32c1.32,2.76,2.57,4.14,3.76,4.14.76,0,1.14-.46,1.14-1.37,0-.81-.28-1.82-.85-3.02-.57-1.2-1.67-3.17-3.31-5.91-1.73-2.91-2.98-5.34-3.75-7.31-.77-1.96-1.16-3.93-1.16-5.91,0-2.69.58-4.69,1.73-6.01,1.15-1.32,2.55-1.98,4.19-1.98.86,0,1.84.3,2.95.89.56.3.94.46,1.14.46.27,0,.43-.18.48-.53.07-.37.2-.6.41-.69.2-.08.63-.13,1.29-.13.42,0,.7.05.83.14.13.09.24.36.34.8Z"/>
  <g>
    <path class="cls-1" d="M25.27,85.46h-5.27l-10.21-12.14h-5.72v12.14H0v-30.54h8.55c1.85,0,3.38.12,4.61.36,1.23.24,2.34.67,3.32,1.28,1.11.7,1.97,1.58,2.59,2.64s.93,2.4.93,4.03c0,2.2-.55,4.04-1.66,5.53s-2.63,2.6-4.57,3.35l11.48,13.35ZM15.77,63.52c0-.88-.15-1.65-.46-2.33-.31-.68-.82-1.25-1.53-1.71-.59-.4-1.29-.67-2.09-.83-.81-.16-1.76-.24-2.85-.24h-4.78v11.53h4.1c1.29,0,2.41-.11,3.36-.34.96-.22,1.77-.65,2.44-1.26.62-.57,1.07-1.23,1.36-1.98.29-.74.44-1.69.44-2.84Z"/>
    <path class="cls-1" d="M47.39,74.02c0,3.73-.96,6.68-2.87,8.84s-4.48,3.24-7.69,3.24-5.81-1.08-7.72-3.24-2.86-5.11-2.86-8.84.95-6.68,2.86-8.85c1.91-2.17,4.48-3.25,7.72-3.25s5.78,1.08,7.69,3.25c1.91,2.17,2.87,5.12,2.87,8.85ZM43.42,74.02c0-2.97-.58-5.17-1.74-6.61s-2.78-2.16-4.84-2.16-3.72.72-4.87,2.16-1.73,3.65-1.73,6.61.58,5.05,1.74,6.53c1.16,1.48,2.78,2.23,4.86,2.23s3.66-.73,4.83-2.2,1.75-3.65,1.75-6.55Z"/>
    <path class="cls-1" d="M71.16,85.46h-3.83v-2.44c-.34.23-.8.56-1.38.97-.58.42-1.15.75-1.69,1-.64.31-1.38.58-2.21.79-.83.21-1.81.32-2.93.32-2.06,0-3.81-.68-5.25-2.05s-2.15-3.11-2.15-5.23c0-1.74.37-3.14,1.12-4.21.75-1.07,1.81-1.92,3.19-2.53,1.39-.62,3.07-1.03,5.02-1.25s4.05-.38,6.3-.49v-.59c0-.88-.15-1.6-.46-2.17s-.75-1.03-1.32-1.35c-.55-.31-1.2-.53-1.97-.64s-1.57-.16-2.4-.16c-1.01,0-2.14.13-3.38.4-1.24.27-2.53.65-3.86,1.16h-.21v-3.92c.75-.21,1.84-.43,3.26-.68s2.82-.37,4.2-.37c1.61,0,3.02.13,4.21.4,1.2.27,2.23.72,3.11,1.36.86.63,1.52,1.44,1.97,2.44s.68,2.24.68,3.71v15.54ZM67.33,79.82v-6.38c-1.18.07-2.56.17-4.15.31s-2.85.33-3.78.59c-1.11.31-2,.8-2.69,1.47s-1.03,1.58-1.03,2.74c0,1.31.4,2.3,1.19,2.96s2,.99,3.63.99c1.35,0,2.59-.26,3.71-.79s2.16-1.16,3.12-1.9Z"/>
    <path class="cls-1" d="M94.95,78.86c0,2.09-.86,3.81-2.59,5.15s-4.09,2.01-7.09,2.01c-1.7,0-3.25-.2-4.67-.6-1.42-.4-2.6-.84-3.56-1.32v-4.33h.21c1.22.92,2.57,1.64,4.06,2.18,1.49.54,2.92.81,4.29.81,1.7,0,3.02-.27,3.98-.82s1.44-1.41,1.44-2.58c0-.9-.26-1.59-.78-2.05s-1.52-.86-2.99-1.19c-.55-.12-1.26-.27-2.14-.43s-1.69-.34-2.41-.53c-2.01-.53-3.44-1.32-4.28-2.35-.84-1.03-1.26-2.3-1.26-3.8,0-.94.19-1.83.58-2.67s.98-1.58,1.77-2.24c.77-.64,1.74-1.15,2.92-1.53s2.51-.56,3.97-.56c1.37,0,2.75.17,4.15.5,1.4.34,2.57.74,3.5,1.22v4.12h-.21c-.98-.72-2.18-1.34-3.59-1.83s-2.79-.75-4.14-.75-2.6.27-3.57.81c-.97.54-1.46,1.34-1.46,2.41,0,.94.29,1.65.88,2.13.57.48,1.5.87,2.79,1.17.71.16,1.51.33,2.39.49s1.62.31,2.2.45c1.79.41,3.17,1.11,4.14,2.11.97,1.01,1.46,2.35,1.46,4.02Z"/>
    <path class="cls-1" d="M112.36,85.26c-.72.19-1.51.35-2.37.47s-1.62.18-2.29.18c-2.34,0-4.12-.63-5.33-1.89s-1.83-3.27-1.83-6.05v-12.18h-2.6v-3.24h2.6v-6.58h3.86v6.58h7.96v3.24h-7.96v10.44c0,1.2.03,2.14.08,2.82.05.68.25,1.31.57,1.9.3.55.71.95,1.24,1.2.53.25,1.33.38,2.41.38.63,0,1.29-.09,1.97-.28.68-.19,1.18-.34,1.48-.46h.21v3.47Z"/>
    <path class="cls-1" d="M136.19,74.41h-16.88c0,1.41.21,2.64.64,3.68.42,1.05,1,1.9,1.74,2.57.71.66,1.56,1.15,2.53,1.48s2.05.49,3.23.49c1.56,0,3.13-.31,4.71-.93,1.58-.62,2.7-1.23,3.37-1.83h.21v4.2c-1.3.55-2.62,1-3.98,1.37s-2.78.55-4.27.55c-3.8,0-6.77-1.03-8.9-3.09s-3.2-4.98-3.2-8.77,1.02-6.72,3.07-8.92,4.73-3.3,8.07-3.3c3.09,0,5.47.9,7.15,2.71s2.51,4.37,2.51,7.69v2.09ZM132.44,71.45c-.01-2.02-.52-3.59-1.53-4.7s-2.53-1.66-4.58-1.66-3.71.61-4.93,1.83-1.92,2.73-2.08,4.53h13.12Z"/>
    <path class="cls-1" d="M156.33,66.76h-.21c-.57-.14-1.13-.24-1.67-.3-.54-.06-1.18-.09-1.92-.09-1.19,0-2.34.26-3.45.79s-2.17,1.21-3.2,2.04v16.26h-3.86v-22.91h3.86v3.38c1.53-1.23,2.88-2.1,4.05-2.62,1.17-.51,2.36-.77,3.58-.77.67,0,1.16.02,1.46.05s.75.1,1.35.19v3.96Z"/>
    <path class="cls-1" d="M164.1,58.72h-4.35v-4h4.35v4ZM163.86,85.46h-3.86v-22.91h3.86v22.91Z"/>
    <path class="cls-1" d="M190.66,74.41h-16.88c0,1.41.21,2.64.64,3.68.42,1.05,1,1.9,1.74,2.57.71.66,1.56,1.15,2.53,1.48s2.05.49,3.23.49c1.56,0,3.13-.31,4.71-.93,1.58-.62,2.7-1.23,3.37-1.83h.21v4.2c-1.3.55-2.62,1-3.98,1.37s-2.78.55-4.27.55c-3.8,0-6.77-1.03-8.9-3.09s-3.2-4.98-3.2-8.77,1.02-6.72,3.07-8.92,4.73-3.3,8.07-3.3c3.09,0,5.47.9,7.15,2.71s2.51,4.37,2.51,7.69v2.09ZM186.91,71.45c-.01-2.02-.52-3.59-1.53-4.7s-2.53-1.66-4.58-1.66-3.71.61-4.93,1.83-1.92,2.73-2.08,4.53h13.12Z"/>
  </g>
</svg>